# xmcd
#
# Track frame offsets: 
#        150
#        27875
#        39370
#        53117
#        76012
#        91260
#        107615
#        118402
#        166172
#        180592
#        200125
#        216452
#
# Disc length: 3088 seconds
#
# Revision: 0
# Processed by: cddbd v1.5.2PL0 Copyright (c) Steve Scherf et al.
# Submitted via: ExactAudioCopy v0.95b4
#
DISCID=9c0c0e0c
DTITLE=Tenderkist Wanganui City Silver Band - Champion Brass
DYEAR=1988
DGENRE=
TTITLE0=Doyen
TTITLE1=Roberto's Bolero
TTITLE2=True Love Ways
TTITLE3=Rodelinda
TTITLE4=Shepherd's Song
TTITLE5=Pilgrim's Chorus
TTITLE6=Dance Napolitane
TTITLE7=Ash Wednesday
TTITLE8=Intermezza
TTITLE9=Fidgety Feet
TTITLE10=Memories
TTITLE11=Scherzo
EXTD=
EXTT0=
EXTT1=
EXTT2=
EXTT3=
EXTT4=
EXTT5=
EXTT6=
EXTT7=
EXTT8=
EXTT9=
EXTT10=
EXTT11=
PLAYORDER=
